<?xml version="1.0" encoding="UTF-8"?>
<svg id="Layer_1" data-name="Layer 1" xmlns="http://www.w3.org/2000/svg" width="294.12" height="287.34" viewBox="0 0 294.12 287.34">
  <defs>
    <style>
      .cls-1 {
        fill: #3f3d3e;
      }

      .cls-2 {
        fill: none;
        stroke: #3f3d3e;
        stroke-miterlimit: 10;
        stroke-width: 3px;
      }

      .cls-3 {
        fill: #e08517;
      }
    </style>
  </defs>
  <ellipse class="cls-2" cx="144.52" cy="143.67" rx="143.02" ry="142.17"/>
  <rect class="cls-1" x="202.59" y="61.41" width="34.03" height="154.75" rx="1.02" ry="1.02"/>
  <path class="cls-3" d="M195.43,119.48c-.3,4.16-1.13,9.26-3.61,16.46-1.34,3.87-3,7.9-6.38,14.62-2.56,5.1-5.77,11.05-11.25,20.11-5.48,9.07-10.5,17.28-18.14,27.7-2.82,3.85-7.01,9.35-12.51,15.75-1.86-3.64-4.7-9.25-8.15-16.11-4.18-8.31-6.74-13.48-10.48-20.96-6.99-13.97-13.98-27.95-20.97-41.92-3.36-6.71-6.71-13.42-10.07-20.12-5.22-10.43-10.59-21.07-18.94-29.21-8.35-8.14-20.4-13.45-31.75-10.77,11.58-12.45,30.59-17.39,46.76-12.15,12.33,4,20.91,10.85,33.24,25.07,12.63,14.58,29.04,35.25,46.3,62.48,1.64-1.78,3.63-3.97,5.96-6.65,3.05-3.52,4.58-5.28,6.25-7.47,4.54-5.92,8.7-11.36,11.21-19.08,1.2-3.7,1.61-6.66,2.1-6.61,.64,.08,.7,5,.43,8.86Z"/>
  <path class="cls-1" d="M74.34,216.09h-24.19l-.56-128.81c3.97,1.23,10.13,3.87,15.38,10.02,5.42,6.34,9.37,13.95,9.37,23.09v95.71Z"/>
</svg>